<svg version="1.1" id="Capa_1" xmlns="http://www.w3.org/2000/svg" xmlns:xlink="http://www.w3.org/1999/xlink" x="0px" y="0px"
	 viewBox="0 0 502.688 502.688" style="enable-background:new 0 0 502.688 502.688;" xml:space="preserve">
<g>
	<g>
		<path style="fill:#B4ED07;" d="M283.4,7.97c-120.883,0-219.245,98.363-219.245,219.267c0,43.573,12.921,84.083,34.923,118.251
			l-89.001,87.599l0.194,0.237c-13.741,14.215-13.741,36.821,0.28,50.778c13.935,14.064,36.584,14.129,50.821,0.345l0.216,0.28
			l86.65-85.205c37.296,29.336,84.191,47.024,135.206,47.024c120.883,0,219.245-98.363,219.245-219.267
			C502.645,106.333,404.283,7.97,283.4,7.97z M46.639,470.771c-6.277,6.212-16.415,6.234-22.736-0.065
			c-6.212-6.277-6.256-16.415,0-22.649s16.394-6.277,22.671-0.022C52.83,454.313,52.83,464.473,46.639,470.771z M415.888,196.909
			c-2.351,16.48-30.587,35.29-23.534,51.748c7.054,16.459-4.702,35.268-4.702,35.268s-11.756,54.078-18.81,61.132
			c-7.054,7.054-49.375,25.885-39.992,37.641c9.448,11.735,37.619-2.33,65.856-9.426c6.967-1.747,13.935-3.904,20.6-6.385
			c-34.492,32.593-80.847,52.719-131.905,52.719c-43.508,0-83.565-14.711-115.835-39.151l75.627-74.376l99.42-0.28L369.769,204.2
			l-10.785-10.893l-53.949,54.078l-52.762-52.719l53.992-54.013l-10.785-10.85l-101.62,27.265l-0.324,96.637l-0.582-0.582
			l-74.225,73.039c-13.158-21.808-22.067-46.334-25.691-72.629c16.308-8.499,42.861-22.779,52.417-30.717
			c14.086-11.756-4.746-16.459-7.054-23.534c-2.351-7.054,0-23.512,0-39.971c0-16.48,32.874-16.502,44.63-32.939
			c8.413-11.713-6.989-37.533-16.588-51.554c32.442-24.957,72.931-39.992,116.935-39.992c11.648,0,23.016,1.208,34.103,3.214
			c3.279,20.255,10.052,48.124,23.124,55.394c21.139,11.735,47.046,37.619,56.451,42.322
			C406.526,140.48,418.217,180.472,415.888,196.909z M444.124,211.038c-11.648-8.348-21.183-44.695-14.107-56.451
			c4.228-7.097,15.272-13.288,23.426-17.106c14.215,26.812,22.347,57.335,22.347,89.756c0,9.728-0.971,19.241-2.351,28.581
			C469.297,239.274,461.273,223.355,444.124,211.038z"/>
	</g>
	<g>
	</g>
	<g>
	</g>
	<g>
	</g>
	<g>
	</g>
	<g>
	</g>
	<g>
	</g>
	<g>
	</g>
	<g>
	</g>
	<g>
	</g>
	<g>
	</g>
	<g>
	</g>
	<g>
	</g>
	<g>
	</g>
	<g>
	</g>
	<g>
	</g>
</g>
<g>
</g>
<g>
</g>
<g>
</g>
<g>
</g>
<g>
</g>
<g>
</g>
<g>
</g>
<g>
</g>
<g>
</g>
<g>
</g>
<g>
</g>
<g>
</g>
<g>
</g>
<g>
</g>
<g>
</g>
</svg>
