<svg width="119" height="100" viewBox="0 0 119 100" fill="none" xmlns="http://www.w3.org/2000/svg">
<circle cx="73" cy="39" r="10" fill="#20b46a" stroke="black"/>
<circle cx="47" cy="65" r="9.5" fill="#20b46a" stroke="black"/>
<path d="M60.9822 61.1725L68.4792 61.2682L60.9822 68.771L60.9822 61.1725Z" fill="#20b46a"/>
<circle cx="77.1207" cy="68.9809" r="16.5838" transform="rotate(-0.512576 77.1207 68.9809)" fill="#20b46a" stroke="black"/>
<path d="M60.5568 66.9933L60.5858 52.5459L74.8849 52.4426L60.5568 66.9933Z" fill="#20b46a" stroke="black"/>
<path d="M60.9822 61.1725L68.4792 61.2682L60.9822 68.771L60.9822 61.1725Z" fill="#20b46a"/>
<path d="M69.6947 52.9779L76.6581 52.8224L67.9159 61.6009L69.6947 52.9779Z" fill="#20b46a"/>
<rect x="63" y="56" width="9" height="6" fill="#20b46a"/>
<path d="M58.7946 43.8383L51.297 43.8503L58.6855 36.2835L58.7946 43.8383Z" fill="#20b46a"/>
<path d="M26.5586 34.9892C26.59 25.8861 34.0376 18.527 43.1992 18.5583C52.3608 18.5896 59.7575 25.9993 59.726 35.1024C59.6946 44.2055 52.247 51.5646 43.0854 51.5333C33.9238 51.5021 26.5272 44.0924 26.5586 34.9892Z" fill="#20b46a" stroke="black"/>
<path d="M59.6789 37.2293L59.4712 51.5892L45.1767 51.5159L59.6789 37.2293Z" fill="#20b46a" stroke="black"/>
<path d="M59.1829 43.0083L51.6877 42.8209L59.277 35.4532L59.1829 43.0083Z" fill="#20b46a"/>
<path d="M50.3697 51.0489L43.405 51.1178L52.2551 42.4971L50.3697 51.0489Z" fill="#20b46a"/>
<rect width="8.38355" height="5.55757" transform="matrix(-0.999924 -0.0123078 0.0124475 -0.999922 56.4912 47.5735)" fill="#20b46a"/>
</svg>